<svg xmlns="http://www.w3.org/2000/svg" xmlns:xlink="http://www.w3.org/1999/xlink" version="1.1" id="Layer_1" x="0px" y="0px" viewBox="0 0 512 512" style="enable-background:new 0 0 512 512;" xml:space="preserve">
<style type="text/css">
	.st0{fill:#3DDC84;}
</style>
<g>
	<path fill="#fff" d="M24.47,242.07c7.27,0,13.41,3.79,16.28,7.88v-6.86h11.16v50.89h-7.88c-1.84,0-3.17-1.43-3.17-3.17l0,0v-3.69   c-2.76,4.1-8.91,7.88-16.28,7.88C10.65,295.01,0,283.13,0,268.49C0,253.95,10.65,242.07,24.47,242.07 M26.52,252.21   c-9.01,0-15.16,7.17-15.16,16.28c0,9.11,6.14,16.28,15.16,16.28s15.16-7.17,15.16-16.28C41.68,259.38,35.64,252.21,26.52,252.21    M64.72,243.1h11.16v6.86c3.07-5.12,8.91-7.88,15.46-7.88c11.78,0,19.35,8.29,19.35,21.3v30.62h-7.99c-1.84,0-3.17-1.43-3.17-3.17   l0,0v-25.6c0-7.99-4.1-12.9-10.65-12.9c-7.37,0-13.11,5.84-13.11,16.69v25.09h-7.99c-1.84,0-3.17-1.43-3.17-3.17l0,0V243.1H64.72z    M144.28,242.07c7.27,0,13.41,3.79,16.28,7.88V217.7h11.16v76.29h-7.88c-1.84,0-3.17-1.43-3.17-3.17l0,0v-3.69   c-2.76,4.1-9.01,7.88-16.28,7.88c-13.93,0-24.47-11.88-24.47-26.52C119.71,253.95,130.25,242.07,144.28,242.07 M146.33,252.21   c-9.01,0-15.16,7.17-15.16,16.28c0,9.11,6.14,16.28,15.16,16.28s15.16-7.17,15.16-16.28C161.48,259.38,155.34,252.21,146.33,252.21    M184.52,243.1h11.16v9.01c2.05-5.73,7.37-9.52,13.41-9.63c1.54,0,2.87,0.1,4.4,0.41v11.47c-1.84-0.61-3.69-0.92-5.63-0.92   c-6.45,0-12.19,5.43-12.19,15.56v24.88h-7.99c-1.84,0-3.17-1.43-3.17-3.17l0,0V243.1L184.52,243.1L184.52,243.1z M243.71,295.01   c-15.05,0-26.73-11.67-26.73-26.52s11.57-26.52,26.73-26.52c15.05,0,26.73,11.67,26.73,26.52S258.66,295.01,243.71,295.01    M243.71,284.57c9.01,0,15.16-6.96,15.16-16.08c0-9.11-6.35-16.08-15.16-16.08c-9.01,0-15.36,6.96-15.36,16.08   C228.25,277.61,234.6,284.57,243.71,284.57 M284.98,231.93c-4.1,0-7.48-3.38-7.48-7.48c0.1-4.1,3.38-7.37,7.48-7.37   s7.48,3.28,7.48,7.48C292.45,228.56,289.08,231.93,284.98,231.93 M279.45,243.1h11.16v50.89h-7.99c-1.84,0-3.17-1.43-3.17-3.17l0,0   V243.1z M324.4,242.07c7.27,0,13.41,3.79,16.28,7.88V217.7h11.16v76.29h-7.99c-1.84,0-3.17-1.43-3.17-3.17l0,0v-3.69   c-2.76,4.1-9.01,7.88-16.28,7.88c-13.93,0-24.47-11.88-24.47-26.52C299.83,253.95,310.37,242.07,324.4,242.07 M326.45,252.21   c-9.01,0-15.16,7.17-15.16,16.28c0,9.11,6.14,16.28,15.16,16.28c9.01,0,15.16-7.17,15.16-16.28   C341.61,259.38,335.46,252.21,326.45,252.21"/>
	<path class="st0" d="M475.44,274.74c-3.07,0-5.73-2.46-5.73-5.73c0-3.07,2.46-5.73,5.73-5.73c3.07,0,5.73,2.46,5.73,5.73   C481.18,272.28,478.52,274.74,475.44,274.74 M412.88,274.74c-3.07,0-5.73-2.46-5.73-5.73c0-3.07,2.46-5.73,5.73-5.73   c3.07,0,5.73,2.46,5.73,5.73C418.61,272.28,416.05,274.74,412.88,274.74 M477.39,240.74l11.26-19.56c0.61-1.13,0.31-2.56-0.92-3.17   c-1.13-0.61-2.56-0.31-3.17,0.92l0,0l-11.47,19.66c-9.11-4.2-19.05-6.35-28.98-6.35c-10.04,0-19.87,2.15-29.08,6.25l-11.57-19.76   c-0.61-1.13-2.15-1.54-3.17-0.92c-1.13,0.61-1.54,2.15-0.92,3.17l11.26,19.56c-19.76,10.75-32.87,30.92-34.61,53.35H512   C510.26,271.56,497.25,251.49,477.39,240.74"/>
</g>
</svg>